<?xml version="1.0" encoding="UTF-8"?>
<svg xmlns="http://www.w3.org/2000/svg" version="1.1" viewBox="0 0 240.6 112.6">
  <defs>
    <style>
      .cls-1 {
        fill: #fff;
      }
    </style>
  </defs>
  <!-- Generator: Adobe Illustrator 28.7.1, SVG Export Plug-In . SVG Version: 1.2.0 Build 142)  -->
  <g>
    <g id="Livello_2">
      <g>
        <g>
          <path class="cls-1" d="M95.2,76.7v29.2h-4.2v-12.4h-10.6c.1,4.4.6,8.9.3,12.4h-4.6v-.2c1.1-10-1.8-28.9,14.9-29.1h4.2ZM91.1,92.7v-15c-9.5.1-10.7,7.3-10.6,15h10.6Z"/>
          <path class="cls-1" d="M114.2,101v4.6c-2.5.3-4.8.4-8.8.4h-8.5v-29.2h4.2v28.3c4.9,0,12.2-3.3,12.9-4.1h.2Z"/>
          <path class="cls-1" d="M115.7,76.7h4.2v29.2h-4.2v-29.2Z"/>
          <path class="cls-1" d="M125.4,87.8c0,14.9,14.1,19,19.5,12.7h.2c-1,1.2-3.8,5.6-10,5.6s-13.6-5.8-13.6-14.8,6.1-14.8,13.6-14.8,8.9,2.1,10,2.7v7h-.2c-1-2.5-6.6-7.9-11.9-7.9s-7.6,2.5-7.6,9.5Z"/>
          <path class="cls-1" d="M164.3,83.3c-3.4-5.1-9-5.6-16-5.6,2.7,1.2,2.7,1.8,2.7,6v5.3c4-1.3,10.8-1.3,12.2-1.3v4.6h-.2c-2.1-1.7-9.2-4.1-13.4-2,1.1,1.2,1.4,2.5,1.4,5.8v8.9c6.9-.4,11-2.5,12.9-4h.2v4.6c-2.8.4-4.6.4-9.1.4h-8.2v-29.2h17.5l.3,6.6h-.2Z"/>
        </g>
        <g>
          <path class="cls-1" d="M101.1,69.6c.2-6,.9-11.8,2.9-17.5-2.4-.3-4-1.7-4.8-3.9-.9-2.5-.6-5,.8-7.2,2.4-3.8,5.1-7.5,7.6-11.3.4-.6.6-1.4.6-2.1,0-2.3,0-4.7,0-7-.8-.3-1.6-.8-2.5-1-.5-.1-1.2,0-1.6.2-4.4,2.2-8,5.4-10.9,9.4-.2.3-.5.7-.7,1,0,0-.2.1-.4.3,1.4-7.4,4.4-13.7,9.7-18.9.4-.4,1.1-.5,1.7-.6,3.2-.2,6.4-.3,9.6-.5,1,0,1.9-.5,2.8-.8,2.7,3,5.5,6.1,8.2,9.2-1.8,1.7-3.7,3.4-5.5,5.1,0,0,.1.1.2.2,2.7-1.5,5.3-3.1,8-4.5,3-1.6,6.1-2.8,9.5-3,1.2,0,2.5,0,3.7.4,2.9.9,3.9,2.9,2.6,5.6-1,2.2-2.6,4.1-4.1,6-1,1.3-2.5,2.2-3.8,3.3.7,1,1.4,2,2,3.1,1.5,2.7,1.6,5.5,0,8.3-1.3,2.3-2.7,4.6-3.6,7-1.6,4-1.1,7.9.9,11.4.2-2.3.4-4.8.7-7.3.2-1.1.6-2.2,1.2-3.2,1.3-2.2,2.7-4.4,2.3-7.6,1.5,1.7,1.4,3.2,1.1,4.8-.4,1.8-1.1,3.5-1.5,5.3-.8,3.8.1,7.3,2.3,10.8,1.1-3.5,2.1-6.7,3.2-10,.6-1.7.8-3.2,0-5-1-1.9-.8-4,.2-5.9.6-1.2,1.1-2.4,1.5-3.6.5-1.4.9-2.8.2-4.3-.7-1.6-.2-3.1,1.2-4.3,1-.8,1.5-1.6.6-3-.9-1.6-.4-3.4,0-5.1.4-2,.5-4.1.6-6.2,0-.6-.4-1.3-.6-2-.2.2-.4.2-.4.3-.3.5-.6,1-.9,1.5-.3-.5-.8-.9-.9-1.4-.3-1.6-1.1-2.3-2.8-1.9-.5.1-1.2,0-1.9,0,.3-1.7,2-2,2.8-3.2-.3-.7-.7-1.6-1-2.5-.1-.3,0-.7,0-1.1.4,0,.8,0,1.1.2.8.4,1.5,1,2.4,1.6.8-.6,1.5-1.3,2.3-1.9.2-.2.6-.2.9-.2,0,.3.3.7.2.9-1.1,2.1-.6,3.6,1.7,4.5.2,0,.4.5.5.8-.3.2-.6.5-1,.5-.6,0-1.1,0-1.9.2,2.8,2.5,2.7,5.6,2.6,8.8-.1,2,0,3.9,1.1,5.6.4.6.4,1.4.2,2-.6.7-1.3,1.3-1.7,2.1-.9,1.8-1,3.8-.6,5.7.2,1,.3,2.3,2,2.1,0,0,.2,0,.3.1,1.1.5,3.6,4.7,3.7,5.9,0,.3,0,.7,0,1,1.2,2.5.2,4.7-1.2,6.7-.6.8-.8,1.4-.2,2.3.3.4.5,1,.7,1.5.3,1,.8,1.7,1.9,2.1,1.3.4,1.8,2,1.3,3.3-.5,1.2-1.9,2-3.2,1.7-1.3-.3-2.4-1.8-1.9-3,.8-1.8,0-3-1-4.4-1.7,4-2.2,8.1-1.8,12.4h-28.9c.2-1.3.4-2.5.5-3.7,0-1.7,0-3.5-.2-5.2-.2-1.7-1.1-3.1-2.8-3.5-1.9-.5-3.7,0-4.6,1.6-1.4,2.3-2.4,4.8-3.5,7.2-.2.4-.2.9-.4,1.3q-.6,2.5-3.1,2.5c-1.9,0-3.8,0-6,0ZM148.2,68.1c.8-4.3,1.6-8.4,2.2-12.6,0-.5-.2-1.3-.6-1.5-1.8-1-2.2-2.6-1.9-4.4.1-1,.2-2.1.3-3.1.2-2.2.1-4.4-1.3-6.4-.5,1.2-.9,2.3-1.3,3.4-.9,2.3-.8,4.6-.1,7,.3,1.1.3,2.3.3,3.5,0,1.1-.4,2.1-.7,3.2-.8,3.6-1.7,7.2-2.6,10.9h5.6ZM119.9,43.7c.8,2.4,2.4,4.1,4.9,4.8,3.2,1,4.3.4,5.3-2.7,1-3,1.4-6,.8-9.2,0-.4-.3-.7-.4-1.1-.5.2-.9.4-1.3.6.2.7.5,1.3.5,1.8,0,.8.2,2.1-.2,2.3-.8.4-1.9.3-2.8.4,0-.2,0-.3,0-.5.3-.3.6-.7,1-1-.5-1.1-1.1-2.3-1.7-3.7-1.5,3.4-4,2.5-6.4,1.6-.9,3.2,1,4.8,3.5,6-.1.1-.2.2-.3.4-.8.2-1.6.3-2.6.5ZM148.9,51.2c.2,0,.3,0,.5.1.4-.4.8-.8,1.3-1.5v2.8c.7-.3,1.1-.5,1.8-.7-.2.7-.3,1.2-.5,1.8.2,0,.3,0,.4,0,1.7-1.6,2.3-6,1.2-8-.1-.2-.4-.3-.6-.5-.4-.5-.8-1-1.2-1.5-.3-.5-.6-1-.9-1.5-.6,1.7-.9,3.2-1.2,4.7-.3,1.5-.5,2.9-.8,4.4ZM120.1,53.1c-.3-1.8-1.1-2.8-2.6-3.7-2.6-1.6-3.1-3-2.1-5.9.3-1.1.6-2.3.4-3.4-.3-1.8-1.1-3.6,0-5.4-1.4,1-2.5,2.4-2,3.9.7,2,.2,3.7-.3,5.5-.7,2.6-.2,4.2,2,5.8,1.5,1.1,3,2.1,4.6,3.1Z"/>
          <path class="cls-1" d="M124.7,43.5c1-1.7,2.7-1.7,4.4-1.8.3,0,.6.5.9.8-.4.3-.8.9-1.2.9-1.4.1-2.8,0-4.2,0Z"/>
          <path class="cls-1" d="M126.1,45c.6-.2,1.2-.6,1.8-.7.4,0,.8.4,1.2.6-.3.3-.6.8-.9.9-.6,0-1.3-.1-2-.2,0-.2,0-.4,0-.6Z"/>
        </g>
      </g>
    </g>
  </g>
</svg>